# xmcd
#
# Track frame offsets:
# 150
# 13726
# 29585
# 48875
# 64689
# 81776
# 97724
# 117467
# 131059
# 150718
# 166234
# 184683
#
# Disc length: 2755 seconds
#
# Revision: 0
# Processed by: cddbd v1.5.1PL2 Copyright (c) Steve Scherf et al.
# Submitted via: Audion 3.0.2 (http://www.panic.com/audion/)
#
DISCID=930ac10c
DTITLE=Lark Watts - The Gravel Sessions
DYEAR=1900
DGENRE=
TTITLE0=Shinola
TTITLE1=Not Gonna Miss You
TTITLE2=Girl You Used to Be
TTITLE3=Hate Me
TTITLE4=Satellite
TTITLE5=Love
TTITLE6=Roomful of Angels
TTITLE7=Sister Sarah
TTITLE8=Painless
TTITLE9=Tired
TTITLE10=Suffer
TTITLE11=Lucy's Song
EXTD=
EXTT0=
EXTT1=
EXTT2=
EXTT3=
EXTT4=
EXTT5=
EXTT6=
EXTT7=
EXTT8=
EXTT9=
EXTT10=
EXTT11=
PLAYORDER=
